<?xml version="1.0" encoding="utf-8"?>
<!-- Generator: Adobe Illustrator 21.1.0, SVG Export Plug-In . SVG Version: 6.00 Build 0)  -->
<svg version="1.1" id="Layer_1" xmlns="http://www.w3.org/2000/svg" xmlns:xlink="http://www.w3.org/1999/xlink" x="0px" y="0px"
	 viewBox="0 0 477.4 79.5" style="enable-background:new 0 0 477.4 79.5;" xml:space="preserve">
<style type="text/css">
	.st0{fill:#1A2C6E;}
	.st1{clip-path:url(#SVGID_2_);}
	.st2{clip-path:url(#SVGID_4_);}
	.st3{clip-path:url(#SVGID_6_);}
	.st4{clip-path:url(#SVGID_8_);}
	.st5{clip-path:url(#SVGID_10_);}
	.st6{clip-path:url(#SVGID_12_);}
	.st7{clip-path:url(#SVGID_14_);}
	.st8{clip-path:url(#SVGID_16_);}
	.st9{clip-path:url(#SVGID_18_);}
</style>
<title>Digiteam_logo</title>
<g id="Layer_1_1_">
	<polygon class="st0" points="472.3,2.3 440.5,65.8 408.5,2.3 403.4,2.3 403.4,77.3 410.9,77.3 410.9,22.7 438,77.3 442.8,77.3 
		469.9,22.7 469.9,77.3 477.4,77.3 477.4,2.3 	"/>
	<g>
		<defs>
			<polygon id="SVGID_1_" points="472.3,2.3 440.5,65.8 408.5,2.3 403.4,2.3 403.4,77.3 410.9,77.3 410.9,22.7 438,77.3 442.8,77.3 
				469.9,22.7 469.9,77.3 477.4,77.3 477.4,2.3 			"/>
		</defs>
		<clipPath id="SVGID_2_">
			<use xlink:href="#SVGID_1_"  style="overflow:visible;"/>
		</clipPath>
		<g class="st1">
			<rect x="403.4" y="2.3" class="st0" width="74.1" height="75"/>
		</g>
	</g>
	<path class="st0" d="M7.8,9.3h15.3C41.3,9.3,56.8,21,56.8,40S42,70,23.8,70h-16L7.8,9.3z M0,2.3v75h23.4
		c21.4,0,41.5-12.8,41.5-37.2c0-24.2-20.6-37.8-42.1-37.8L0,2.3z"/>
	<g>
		<defs>
			<path id="SVGID_3_" d="M7.8,9.3h15.3C41.3,9.3,56.8,21,56.8,40S42,70,23.8,70h-16L7.8,9.3z M0,2.3v75h23.4
				c21.4,0,41.5-12.8,41.5-37.2c0-24.2-20.6-37.8-42.1-37.8L0,2.3z"/>
		</defs>
		<clipPath id="SVGID_4_">
			<use xlink:href="#SVGID_3_"  style="overflow:visible;"/>
		</clipPath>
		<g class="st2">
			
				<rect x="-17" y="-9.7" transform="matrix(0.7071 -0.7071 0.7071 0.7071 -18.6184 34.5697)" class="st0" width="98.9" height="98.9"/>
		</g>
	</g>
	<rect x="80.8" y="2.3" class="st0" width="7.8" height="75"/>
	<g>
		<defs>
			<rect id="SVGID_5_" x="80.8" y="2.3" width="7.8" height="75"/>
		</defs>
		<clipPath id="SVGID_6_">
			<use xlink:href="#SVGID_5_"  style="overflow:visible;"/>
		</clipPath>
		<g class="st3">
			
				<rect x="55.4" y="10.5" transform="matrix(0.7071 -0.7071 0.7071 0.7071 -3.3034 71.5342)" class="st0" width="58.5" height="58.5"/>
		</g>
	</g>
	<path class="st0" d="M104.6,39.9c0,23.2,19,39.6,39.9,39.6c6,0.1,12-0.9,17.7-2.8c2.8-1,5.6-2.3,8.2-3.8V45.2h-7.8v23.9
		c-5.7,2.3-11.8,3.5-18,3.6c-17.4,0-32-14.1-32-32.9c0-19,15.3-32.9,32-32.9c12.1,0,21.7,5.6,25.3,7.5V6.3
		C162,2.3,153.3,0.1,144.4,0C123.9,0,104.5,16.6,104.6,39.9"/>
	<g>
		<defs>
			<path id="SVGID_7_" d="M104.6,39.9c0,23.2,19,39.6,39.9,39.6c6,0.1,12-0.9,17.7-2.8c2.8-1,5.6-2.3,8.2-3.8V45.2h-7.8v23.9
				c-5.7,2.3-11.8,3.5-18,3.6c-17.4,0-32-14.1-32-32.9c0-19,15.3-32.9,32-32.9c12.1,0,21.7,5.6,25.3,7.5V6.3
				C162,2.3,153.3,0.1,144.4,0C123.9,0,104.5,16.6,104.6,39.9"/>
		</defs>
		<clipPath id="SVGID_8_">
			<use xlink:href="#SVGID_7_"  style="overflow:visible;"/>
		</clipPath>
		<g class="st4">
			
				<rect x="86.1" y="-11.6" transform="matrix(0.7071 -0.7071 0.7071 0.7071 12.1466 108.834)" class="st0" width="102.7" height="102.7"/>
		</g>
	</g>
	<rect x="189.2" y="2.3" class="st0" width="7.8" height="75"/>
	<g>
		<defs>
			<rect id="SVGID_9_" x="189.2" y="2.3" width="7.8" height="75"/>
		</defs>
		<clipPath id="SVGID_10_">
			<use xlink:href="#SVGID_9_"  style="overflow:visible;"/>
		</clipPath>
		<g class="st5">
			
				<rect x="163.8" y="10.5" transform="matrix(0.7071 -0.7071 0.7071 0.7071 28.4466 148.1847)" class="st0" width="58.5" height="58.5"/>
		</g>
	</g>
	<polygon class="st0" points="208.7,2.3 208.7,9.1 235.1,9.1 235.1,77.3 242.9,77.3 242.9,9.1 269.4,9.1 269.4,2.3 	"/>
	<g>
		<defs>
			<polygon id="SVGID_11_" points="208.7,2.3 208.7,9.1 235.1,9.1 235.1,77.3 242.9,77.3 242.9,9.1 269.4,9.1 269.4,2.3 			"/>
		</defs>
		<clipPath id="SVGID_12_">
			<use xlink:href="#SVGID_11_"  style="overflow:visible;"/>
		</clipPath>
		<g class="st6">
			
				<rect x="191.1" y="-8.2" transform="matrix(0.7071 -0.7071 0.7071 0.7071 41.9058 180.669)" class="st0" width="95.9" height="95.9"/>
		</g>
	</g>
	<polygon class="st0" points="280.4,2.3 280.4,77.3 324.3,77.3 324.3,70.3 288.2,70.3 288.2,42.8 314.6,42.8 314.6,35.9 288.2,35.9 
		288.2,9.3 322.5,9.3 322.5,2.3 	"/>
	<g>
		<defs>
			<polygon id="SVGID_13_" points="280.4,2.3 280.4,77.3 324.3,77.3 324.3,70.3 288.2,70.3 288.2,42.8 314.6,42.8 314.6,35.9 
				288.2,35.9 288.2,9.3 322.5,9.3 322.5,2.3 			"/>
		</defs>
		<clipPath id="SVGID_14_">
			<use xlink:href="#SVGID_13_"  style="overflow:visible;"/>
		</clipPath>
		<g class="st7">
			
				<rect x="260.3" y="-2.3" transform="matrix(0.7071 -0.7071 0.7071 0.7071 60.4487 225.4417)" class="st0" width="84" height="84"/>
		</g>
	</g>
	<path class="st0" d="M358.3,21.9l3.4-10.6l3.3,10.6l7.4,21.9h-21.5L358.3,21.9z M357.8,2.3l-26.7,75h8.3l9.4-27.1h25.8l9.4,27.1
		h8.3l-26.7-75L357.8,2.3z"/>
	<g>
		<defs>
			<path id="SVGID_15_" d="M358.3,21.9l3.4-10.6l3.3,10.6l7.4,21.9h-21.5L358.3,21.9z M357.8,2.3l-26.7,75h8.3l9.4-27.1h25.8
				l9.4,27.1h8.3l-26.7-75L357.8,2.3z"/>
		</defs>
		<clipPath id="SVGID_16_">
			<use xlink:href="#SVGID_15_"  style="overflow:visible;"/>
		</clipPath>
		<g class="st8">
			
				<rect x="313.6" y="-8.4" transform="matrix(0.7071 -0.7071 0.7071 0.7071 77.8308 267.4063)" class="st0" width="96.3" height="96.3"/>
		</g>
	</g>
	<polygon class="st0" points="472.3,2.3 440.5,65.8 408.5,2.3 403.4,2.3 403.4,77.3 410.9,77.3 410.9,22.7 438,77.3 442.8,77.3 
		469.9,22.7 469.9,77.3 477.4,77.3 477.4,2.3 	"/>
	<g>
		<defs>
			<polygon id="SVGID_17_" points="472.3,2.3 440.5,65.8 408.5,2.3 403.4,2.3 403.4,77.3 410.9,77.3 410.9,22.7 438,77.3 
				442.8,77.3 469.9,22.7 469.9,77.3 477.4,77.3 477.4,2.3 			"/>
		</defs>
		<clipPath id="SVGID_18_">
			<use xlink:href="#SVGID_17_"  style="overflow:visible;"/>
		</clipPath>
		<g class="st9">
			
				<rect x="387.7" y="-12.9" transform="matrix(0.7071 -0.7071 0.7071 0.7071 100.8716 323.0474)" class="st0" width="105.4" height="105.4"/>
		</g>
	</g>
</g>
</svg>
