<svg xmlns="http://www.w3.org/2000/svg" width="284" height="51" fill="none">
  <mask id="a" width="69" height="50" x="0" y="1" maskUnits="userSpaceOnUse" style="mask-type:luminance">
    <path fill="#fff" fill-rule="evenodd" d="M0 1.002h68.0562v49.6065H0V1.0021Z" clip-rule="evenodd"/>
  </mask>
  <g mask="url(#a)">
    <path fill="#007864" fill-rule="evenodd" d="M68.0562 42.9795c-4.156 2.753-10.679-2.387-16.221-7.94-5.825-5.841-13.321-15.157-15.027-17.33-.101-.126-.181-.227-.237-.305l-3.686 4.727c.074.097.151.197.227.292 8.423 10.962 22.026 26.61 28.039 25.863l6.905-5.307Zm-11.509-27.904c1.296-3.533.883-7.4-1.901-10.48-3.423-3.791-9.343-4.191-12.987-1.732-1.814 1.223-3.196 2.595-5.417 5.37-1.939 2.422-11.337 14.577-11.341 14.558l1.64 1.785c2.006-2.388 9.515-12.289 11.035-14.029 1.559-1.775 3.326-3.977 5.922-4.258 5.005-.546 9.617 3.572 8.034 10.1-.748 3.065-4.802 10.52-4.802 10.52 2.611-3.393 8.596-8.502 9.817-11.834Zm-28.89-1.23s3.562-4.541 3.582-4.574c-2.47-4.09-4.877-6.458-8.287-7.588-1.263-.416-6.901-1.819-11.37 1.258-6.193 4.256-6.883 11.755-.422 19.517 6.368 7.653 20.556 23.512 22.19 25.972 0 0 5.92-9.479 8.418-13.318 0 0-5.452 5.423-5.542 5.519-.309-.373-18.831-21.464-19.638-22.284-7.238-7.361-3.753-14.194.548-14.595 4.226-.397 6.353 3.409 8.424 6.579 1.583 2.418 2.079 3.499 2.097 3.514Zm-27.659 36.763s8.731-3.265 17.841-14.333c.007.006-1.597-1.852-1.597-1.852-5.732 7.572-11.702 13.186-16.244 16.185Z" clip-rule="evenodd"/>
  </g>
  <path fill="#1A1919" fill-rule="evenodd" d="M96.7212 32.1485c-.303 0-.734-.022-1.362-.221-.513-.154-.735-.652-.947-2.13l-2.119-14.416c-.036-.238-.135-.962-.697-.962-.449 0-.656.472-.764.721l-6.082 12.791-6.106-12.635c-.296-.595-.503-.877-.88-.877-.195 0-.544.108-.672.842l-2.305 15.213c-.11.74-.283 1.512-.735 1.609-.32.065-.461.065-.641.065-.569 0-.654.277-.654.442 0 .163.069.537.7.537.424 0 .968-.022 1.444-.042.356-.016.672-.028.863-.028.163 0 .422.012.736.026.492.019 1.112.044 1.709.044.227 0 .838 0 .838-.537 0-.074-.031-.442-.63-.442-.282 0-.591-.035-.915-.11-.425-.097-.482-.295-.482-.473 0-.37.025-.672.07-1.061l1.107-8.484c.239.513.502 1.075.76 1.622.614 1.304 1.194 2.535 1.321 2.831.282.657 2.095 4.178 2.689 5.319l.066.121c.418.794.631 1.191.998 1.191.393 0 .533-.281 1.112-1.464l4.746-9.902 1.293 9.492c.066.477.032.666.013.725-.134.058-.391.194-.391.495 0 .458.539.505.937.538.928.069 4.143.139 4.747.139.797 0 .885-.374.885-.537 0-.294-.22-.442-.652-.442Zm17.3478-3.127c-.426 0-.498.39-.533.58-.153.889-.386 1.287-.895 1.523-.551.251-1.51.251-2.085.251-2.382 0-2.491-.348-2.526-1.686-.022-.476-.012-1.679-.008-2.644l.01-2.762c.785.004 2.769.031 3.149.071.814.086.997.403 1.07.694.047.191.058.395.07.574.006.083.012.16.018.2 0 .295.196.494.49.494.492 0 .492-.545.492-.725 0-.16.047-1.086.092-1.544.047-.824.119-1.248.156-1.475.021-.121.029-.197.029-.246 0-.279-.176-.469-.442-.469-.233 0-.38.168-.583.399-.146.163-.453.219-.94.258-.328.028-1.638.044-3.603.044v-5.83c.684.006 2.827.05 3.173.089 1.136.135 1.235.392 1.345.672.093.225.119.577.119.729 0 .549.343.607.489.607.124 0 .425-.046.511-.492.031-.185.058-.64.086-1.041.013-.228.025-.428.036-.527.045-.705.11-1.051.15-1.263.023-.122.036-.205.036-.268 0-.465-.351-.489-.419-.489-.118 0-.227.034-.324.066-.04.011-.076.024-.121.035-.188.045-.615.095-.95.133-.28.012-2.409.018-5.84.018-.277 0-.695-.012-1.183-.024-.67-.021-1.469-.044-2.19-.044-.217 0-.795 0-.795.49 0 .224.117.489.68.489.336 0 .697.027.851.066.588.122.743.334.788 1.072.045.739.045 1.381.045 4.93v4.107c0 2.13 0 3.971-.116 4.932-.098.733-.216.998-.462 1.045-.261.059-.518.086-.782.086-.567 0-.653.292-.653.469 0 .19.097.511.747.511.538 0 1.246-.024 1.856-.042.459-.015.862-.029 1.097-.029.527 0 1.083.024 1.764.047 1.131.044 2.539.097 4.72.097.902 0 1.315 0 1.534-.819.122-.489.315-2.103.315-2.661 0-.21 0-.698-.468-.698Zm27.211 3.125c-.347 0-.852-.047-1.152-.091-.44-.056-.59-.285-.67-1.013-.113-.986-.113-2.829-.113-4.959v-4.109c0-3.55 0-4.19.047-4.928.046-.826.233-.995.63-1.07.279-.05.467-.068.628-.068.465 0 .7-.166.7-.491 0-.488-.58-.488-.769-.488-.512 0-1.202.023-1.808.041-.469.015-.886.03-1.131.03-.256 0-.659-.012-1.131-.026-.671-.022-1.486-.045-2.226-.045-.189 0-.769 0-.769.488 0 .223.115.491.676.491.342 0 .695.024.851.066.586.122.736.334.782 1.072.047.738.047 1.376.047 4.928v.373h-8.625v-.373c0-3.552 0-4.19.043-4.928.049-.826.235-.995.633-1.07.279-.05.467-.068.628-.068.464 0 .698-.166.698-.491 0-.488-.578-.488-.769-.488-.513 0-1.2.023-1.804.041-.47.015-.889.03-1.132.03-.258 0-.66-.012-1.132-.026-.672-.022-1.486-.045-2.228-.045-.187 0-.767 0-.767.488 0 .223.116.491.675.491.344 0 .698.024.85.066.588.122.738.334.785 1.072.042.738.042 1.376.042 4.928v4.109c0 2.13 0 3.973-.111 4.929-.103.736-.218.999-.462 1.05-.254.057-.508.084-.776.084-.591 0-.655.328-.655.471 0 .191.097.509.746.509.536 0 1.241-.021 1.85-.042.457-.015.86-.027 1.091-.027.256 0 .64.012 1.102.026.714.019 1.616.043 2.533.043.69 0 .746-.389.746-.509 0-.11-.047-.471-.653-.471-.347 0-.85-.047-1.151-.091-.442-.056-.592-.285-.667-1.013-.115-.986-.115-2.829-.115-4.959v-1.915h8.625v1.915c0 2.13 0 3.973-.116 4.932-.099.733-.214.996-.46 1.047-.253.057-.508.084-.777.084-.589 0-.653.328-.653.471 0 .232.134.509.767.509.518 0 1.216-.021 1.822-.042.46-.015.863-.027 1.095-.027.254 0 .638.012 1.105.026.713.019 1.613.043 2.533.043.69 0 .746-.389.746-.509 0-.11-.05-.471-.654-.471Zm15.093.002c-.34 0-.854-.047-1.166-.089-.473-.064-.629-.265-.697-.896-.096-.99-.096-2.794-.096-5.082v-4.105c0-3.552 0-4.191.047-4.93.049-.826.236-.997.637-1.072.273-.045.443-.066.664-.066.57 0 .652-.322.652-.513 0-.31-.26-.466-.771-.466-.497 0-1.149.02-1.727.039-.467.016-.887.029-1.148.029-.319 0-.807-.015-1.329-.031-.605-.017-1.255-.037-1.734-.037-.252 0-.844 0-.844.466 0 .191.086.513.655.513.308 0 .574.028.787.088.257.058.531.189.586 1.05.045.739.045 1.378.045 4.93v4.105c0 2.285 0 4.089-.116 5.058-.078.719-.215.872-.466.923-.17.036-.438.086-.788.086-.572 0-.654.293-.654.467 0 .155.07.514.746.514.539 0 1.258-.024 1.871-.044.463-.016.866-.03 1.098-.03.248 0 .621.011 1.078.027.723.02 1.649.047 2.598.047.537 0 .728-.266.728-.514 0-.111-.047-.467-.656-.467Zm19.781-3.2236c-.313 0-.494.206-.535.603-.043.383-.301.986-.537 1.24-.492.529-1.285.566-2.535.566-1.788 0-2.325-.164-2.647-.45-.392-.333-.392-2.111-.392-4.803v-4.106c0-3.55 0-4.191.046-4.928.043-.829.233-1 .633-1.072.272-.045.639-.067.863-.067.465 0 .702-.163.702-.488 0-.49-.561-.49-.768-.49-.516 0-1.279.022-1.955.044-.521.012-.986.027-1.232.027-.268 0-.698-.014-1.182-.027-.647-.022-1.397-.044-2.025-.044-.237 0-.795 0-.795.49 0 .221.119.488.677.488.291 0 .549.023.719.064.588.125.742.337.783 1.075.047.737.047 1.378.047 4.928v4.106c0 2.133 0 3.976-.115 4.932-.104.744-.215.998-.467 1.048-.172.038-.435.089-.777.089-.571 0-.656.293-.656.467 0 .192.097.51.744.51.539 0 1.25-.021 1.863-.042.457-.015.863-.027 1.09-.027.81 0 1.556.025 2.408.055 1.16.04 2.475.083 4.402.083 1.194 0 1.545-.102 1.746-.833.194-.692.362-2.477.362-2.756 0-.203 0-.682-.467-.682Zm10.682-3.6026 1.928-5.159 1.883 5.159h-3.811Zm11.922 6.827c-.309 0-.635-.03-.916-.087-.307-.07-.949-.222-1.854-2.373-.845-2.005-2.433-5.981-3.709-9.175-.984-2.467-1.834-4.6-2.078-5.159-.236-.536-.429-.916-.842-.916-.451 0-.642.464-.908 1.108l-5.851 14.633c-.477 1.187-.881 1.809-1.758 1.924-.18.023-.492.045-.69.045-.519 0-.56.359-.56.468 0 .513.543.513.721.513.835 0 1.703-.035 2.25-.055.246-.009.423-.018.502-.018.353 0 .777.018 1.205.036.443.017.886.037 1.267.037.559 0 .674-.28.674-.513 0-.468-.471-.468-.627-.468h-.352c-.65 0-.65-.266-.65-.443 0-.248.111-.779.332-1.323l1.262-3.337 5.115-.019 1.867 4.95c.014.034.028.083.022.15-.143.015-.576.06-.576.49 0 .411.433.434.855.46l.113.006c1.875.047 3.59.047 4.414.047.76 0 1.356 0 1.356-.513 0-.214-.104-.468-.584-.468Zm-6.785-18.4325c.813 0 1.398-.606 1.398-1.441 0-.771-.564-1.308-1.375-1.308-.878 0-1.353.71-1.353 1.374 0 .684.457 1.375 1.33 1.375Zm-4.922 0c.809 0 1.396-.606 1.396-1.441 0-.755-.562-1.286-1.369-1.286-.933 0-1.353.793-1.353 1.352 0 .684.457 1.375 1.326 1.375Zm24.139 18.4317c-.338 0-.854-.047-1.166-.089-.475-.064-.631-.265-.699-.896-.094-.99-.094-2.794-.094-5.082v-4.105c0-3.552 0-4.191.047-4.93.049-.826.236-.997.635-1.072.267-.044.441-.066.662-.066.572 0 .656-.322.656-.513 0-.31-.262-.466-.773-.466-.495 0-1.141.02-1.725.039-.465.016-.887.029-1.15.029-.317 0-.803-.015-1.329-.031-.603-.017-1.252-.037-1.734-.037-.252 0-.844 0-.844.466 0 .191.086.513.659.513.302 0 .57.028.785.088.256.058.533.189.586 1.05.045.739.045 1.378.045 4.93v4.105c0 2.285 0 4.089-.118 5.059-.074.71-.218.873-.464.922-.17.036-.438.086-.79.086-.572 0-.656.293-.656.467 0 .155.074.514.75.514.541 0 1.254-.024 1.871-.044.461-.016.866-.03 1.098-.03.248 0 .625.011 1.082.027.723.02 1.645.047 2.596.047.537 0 .726-.266.726-.514 0-.111-.049-.467-.656-.467Zm25.933-17.2178c-.781 0-1.443.033-1.867.054-.196.009-.338.016-.418.016-.188 0-.469-.01-.815-.024-.55-.019-1.259-.046-2.005-.046-.29 0-.885 0-.885.491 0 .183.086.487.652.487.291 0 .834 0 1.127.121.359.15.596.36.621 1.845l.219 9.893c-.32-.33-.795-.83-1.318-1.377-1.125-1.185-2.53-2.655-3.436-3.564-3.545-3.526-7.184-7.438-7.221-7.479l-.217-.232c-.291-.326-.521-.581-.849-.581-.582 0-.582.807-.582 1.067l-.213 13.812c-.022 1.989-.123 2.505-.522 2.627-.232.067-.578.105-.97.105-.588 0-.655.326-.655.466 0 .515.579.515.797.515.862 0 1.657-.036 2.133-.057.188-.009.324-.015.385-.015.152 0 .363.009.641.021.519.021 1.261.051 2.252.051.203 0 .814 0 .814-.515 0-.212-.117-.466-.676-.466-.33 0-.752-.017-1.121-.146-.246-.087-.578-.421-.629-2.332l-.24-9.129c.035.037.072.077.105.116.981 1.075 3.016 3.31 5.02 5.298.99.983 2.076 2.075 3.113 3.119 1.492 1.497 2.901 2.915 3.766 3.737.285.29.619.598.99.598.582 0 .582-.728.582-.998l.258-14.719c.021-1.314.223-1.593.654-1.718.242-.063.405-.063.629-.063.629 0 .697-.34.697-.487 0-.491-.57-.491-.816-.491Zm19.496 14.0908c-.424 0-.492.376-.531.582-.155.887-.389 1.285-.897 1.521-.552.251-1.511.251-2.082.251-2.385 0-2.492-.348-2.531-1.686-.016-.476-.01-1.679-.004-2.644l.008-2.762c.785.004 2.766.031 3.15.071.811.086.998.403 1.071.694.045.195.058.398.068.577.006.083.012.157.018.197 0 .295.195.494.49.494.494 0 .494-.545.494-.725 0-.157.043-1.083.092-1.544.047-.824.117-1.248.154-1.475.021-.121.031-.197.031-.246 0-.279-.177-.469-.445-.469-.229 0-.375.166-.58.399-.149.163-.457.219-.944.258-.326.028-1.636.044-3.603.044l.004-5.83c.685.006 2.826.05 3.17.089 1.137.135 1.234.392 1.346.672.095.226.121.577.121.729 0 .528.304.607.486.607.156 0 .428-.061.512-.492.031-.184.06-.634.084-1.033.013-.229.023-.433.039-.535.043-.707.111-1.054.15-1.263.022-.122.037-.205.037-.268 0-.465-.351-.489-.422-.489-.119 0-.226.034-.32.066-.039.011-.08.024-.125.035-.187.045-.615.095-.951.133-.278.012-2.408.018-5.838.018-.275 0-.695-.012-1.178-.024-.672-.021-1.474-.044-2.199-.044-.215 0-.791 0-.791.49 0 .224.117.489.678.489.336 0 .701.027.853.066.59.122.74.334.787 1.072.045.739.045 1.381.045 4.93v4.107c0 2.13 0 3.971-.113 4.929-.105.746-.215 1.001-.463 1.048-.168.038-.434.086-.783.086-.59 0-.654.328-.654.469 0 .19.099.511.75.511.535 0 1.246-.024 1.859-.042.455-.015.859-.029 1.09-.029.529 0 1.086.024 1.769.047 1.129.044 2.535.097 4.717.097.902 0 1.315 0 1.537-.822.119-.491.309-2.106.309-2.658 0-.21 0-.698-.465-.698Z" clip-rule="evenodd"/>
  <mask id="b" width="21" height="20" x="263" y="14" maskUnits="userSpaceOnUse" style="mask-type:luminance">
    <path fill="#fff" fill-rule="evenodd" d="M263.291 14.5347h20.169v18.872h-20.169v-18.872Z" clip-rule="evenodd"/>
  </mask>
  <g mask="url(#b)">
    <path fill="#1A1919" fill-rule="evenodd" d="M282.643 14.9307c-.779 0-1.441.033-1.865.054-.196.009-.336.016-.418.016-.188 0-.471-.01-.815-.024-.55-.019-1.261-.046-2.006-.046-.287 0-.886 0-.886.491 0 .183.084.487.652.487.289 0 .834 0 1.129.121.359.152.596.362.619 1.845l.219 9.892c-.313-.323-.779-.815-1.289-1.349-1.137-1.193-2.549-2.676-3.465-3.591-3.51-3.487-7.182-7.438-7.221-7.479-.08-.086-.152-.165-.22-.238-.288-.32-.52-.575-.848-.575-.58 0-.58.807-.58 1.067l-.211 13.812c-.022 1.99-.127 2.505-.52 2.627-.236.067-.58.105-.974.105-.567 0-.653.293-.653.466 0 .515.579.515.795.515.862 0 1.657-.036 2.131-.057.192-.009.324-.015.387-.015.152 0 .365.009.639.021.521.021 1.263.051 2.252.051.201 0 .816 0 .816-.515 0-.212-.115-.466-.676-.466-.33 0-.754-.017-1.121-.146-.246-.087-.578-.421-.629-2.332l-.24-9.132c.041.045.082.091.129.14.974 1.071 3.006 3.303 5 5.277.967.96 2.023 2.022 3.037 3.044 1.521 1.53 2.959 2.974 3.838 3.812.301.302.623.598.99.598.582 0 .582-.728.582-.998l.258-14.719c.021-1.322.215-1.59.652-1.718.246-.063.407-.063.631-.063.629 0 .699-.34.699-.487 0-.491-.572-.491-.818-.491Z" clip-rule="evenodd"/>
  </g>
</svg>
